<?xml version="1.0" encoding="utf-8"?>
<!-- Generator: Adobe Illustrator 16.0.0, SVG Export Plug-In . SVG Version: 6.00 Build 0)  -->
<!DOCTYPE svg PUBLIC "-//W3C//DTD SVG 1.1//EN" "http://www.w3.org/Graphics/SVG/1.1/DTD/svg11.dtd">
<svg version="1.1" id="Layer_1" xmlns="http://www.w3.org/2000/svg" xmlns:xlink="http://www.w3.org/1999/xlink" x="0px" y="0px"
	 width="196.57px" height="196.57px" viewBox="0 0 196.57 196.57" enable-background="new 0 0 196.57 196.57" xml:space="preserve">
<path fill="#FFFFFF" d="M196.57,177.475l-59.861-59.86C145.082,105.51,150,90.832,150,75c0-41.421-33.578-74.999-75-75
	C33.578,0,0,33.579,0,75c0,41.422,33.579,75,75,75c15.832,0,30.509-4.918,42.613-13.293l59.863,59.862L196.57,177.475z M24.087,75
	C24.088,46.882,46.881,24.089,75,24.087c28.119,0.002,50.912,22.795,50.914,50.913c-0.002,28.12-22.797,50.913-50.914,50.913
	C46.882,125.913,24.088,103.118,24.087,75z"/>
<path fill="#FFFFFF" d="M99.787,68.858l-0.002-0.067l-18.521,0.002V49.612h-0.066c0.003-1.572-0.597-3.146-1.797-4.348
	c-2.398-2.398-6.287-2.398-8.685,0c-1.201,1.203-1.799,2.776-1.799,4.345h-0.07v19.184H49.665v0.066
	c-1.57-0.001-3.141,0.6-4.342,1.799c-2.398,2.397-2.398,6.287,0,8.684c1.201,1.2,2.771,1.798,4.343,1.798v0.071h19.181
	l-0.001,19.179h0.071c-0.001,1.574,0.597,3.146,1.797,4.346c2.399,2.398,6.287,2.398,8.684,0c1.202-1.201,1.802-2.773,1.799-4.346
	h0.066V81.21h18.521l-0.002-0.068c1.574,0,3.148-0.601,4.35-1.801c2.4-2.397,2.4-6.286,0-8.684
	C102.933,69.457,101.359,68.858,99.787,68.858z"/>
</svg>
